<?xml version="1.0" standalone="no"?>
<!DOCTYPE svg PUBLIC "-//W3C//DTD SVG 20010904//EN"
 "http://www.w3.org/TR/2001/REC-SVG-20010904/DTD/svg10.dtd">
<svg version="1.0" xmlns="http://www.w3.org/2000/svg"
 width="2100.000000pt" height="2100.000000pt" viewBox="0 0 2100.000000 2100.000000"
 preserveAspectRatio="xMidYMid meet">
<metadata>
Created by potrace 1.14, written by Peter Selinger 2001-2017
</metadata>
<g transform="translate(0.000000,2100.000000) scale(0.100000,-0.100000)"
fill="#000000" stroke="none">
<path d="M3213 17280 c34 -39 164 -185 187 -210 8 -8 47 -51 85 -95 39 -44 79
-89 90 -101 18 -19 126 -139 168 -188 10 -12 37 -41 61 -66 23 -25 77 -85 121
-135 43 -49 81 -92 84 -95 3 -3 26 -27 50 -55 24 -27 79 -88 121 -135 42 -47
122 -135 176 -196 54 -61 133 -148 174 -194 41 -46 82 -91 90 -100 77 -88 151
-170 182 -203 20 -21 47 -51 60 -67 13 -15 57 -65 99 -111 42 -46 140 -156
219 -244 78 -88 163 -182 189 -209 l46 -49 2 -531 c3 -828 12 -3768 12 -4398
l1 -568 1439 0 1440 0 -1 3990 c0 2195 -3 3991 -7 3991 -3 1 -1156 2 -2562 3
l-2557 1 31 -35z"/>
<path d="M12695 17310 c-2 -3 -3 -1799 -4 -3992 l0 -3988 1439 0 1440 0 0 458
c1 251 3 1031 5 1732 2 701 5 1731 6 2288 l3 1013 234 262 c129 144 249 278
266 297 18 19 74 81 124 138 51 57 106 118 122 135 16 18 37 41 47 53 24 27
153 172 223 249 30 33 89 98 130 144 41 46 80 89 85 95 6 6 48 54 95 106 47
52 87 97 90 100 3 3 41 46 84 95 44 50 85 95 90 100 6 6 45 48 86 95 41 47 89
100 105 119 17 18 44 48 60 65 17 18 45 50 64 71 19 22 66 76 105 119 39 43
94 104 121 134 28 31 58 64 68 74 9 10 18 23 20 30 1 9 -567 12 -2551 13
-1405 0 -2555 -2 -2557 -5z"/>
<path d="M5449 8710 c-2 -33 2 -228 6 -275 17 -213 20 -246 30 -317 3 -24 8
-63 11 -88 8 -63 12 -87 24 -150 6 -30 13 -73 16 -94 3 -22 7 -43 9 -47 3 -4
7 -24 11 -45 10 -69 91 -376 133 -504 125 -390 298 -763 520 -1120 36 -58 67
-107 70 -110 4 -3 12 -16 19 -31 14 -27 250 -344 293 -394 15 -16 63 -73 109
-125 154 -177 392 -412 550 -540 30 -25 61 -51 70 -59 24 -23 267 -202 355
-263 166 -113 418 -259 605 -350 121 -60 320 -147 320 -141 0 3 6 1 13 -5 39
-31 549 -197 701 -228 11 -2 72 -15 135 -28 64 -13 134 -28 156 -32 22 -4 45
-8 52 -10 98 -20 383 -50 568 -61 212 -12 566 -6 730 12 22 2 67 7 99 10 33 3
73 8 90 10 125 18 234 35 252 39 12 2 37 7 56 10 19 3 73 14 120 25 47 11 99
23 115 25 131 24 715 216 747 247 6 5 16 9 22 9 12 0 79 30 259 115 257 122
556 306 829 508 56 42 251 201 291 237 22 20 67 61 99 91 612 560 1109 1332
1368 2124 26 81 95 317 103 355 2 8 16 69 30 135 15 66 28 129 30 140 2 11 7
34 10 50 3 17 8 46 10 65 3 19 7 44 10 55 2 11 7 43 10 70 4 28 8 61 11 75 2
14 6 54 10 90 3 36 7 80 9 98 10 79 23 409 18 427 -3 10 -2847 15 -2856 5 -2
-3 -7 -54 -11 -115 -7 -133 -11 -161 -37 -294 -153 -775 -715 -1408 -1472
-1656 -116 -38 -259 -70 -397 -90 -97 -14 -482 -14 -565 0 -163 27 -230 42
-380 86 -209 60 -513 224 -705 378 -308 247 -553 591 -690 964 -37 102 -95
326 -105 407 -3 30 -8 66 -10 80 -2 14 -7 72 -11 130 -3 58 -8 107 -11 110 -2
3 -645 5 -1429 5 -1260 0 -1424 -2 -1425 -15z"/>
</g>
</svg>
